<mxfile host="app.diagrams.net" agent="Mozilla/5.0 (Windows NT 10.0; Win64; x64) AppleWebKit/537.36 (KHTML, like Gecko) Chrome/131.0.0.0 Safari/537.36" version="26.0.5">
  <diagram name="Page-1" id="UqRQ3ehWizsY8x3b88n0">
    <mxGraphModel dx="1687" dy="967" grid="0" gridSize="10" guides="1" tooltips="1" connect="1" arrows="1" fold="1" page="0" pageScale="1" pageWidth="827" pageHeight="1169" math="0" shadow="0">
      <root>
        <mxCell id="0" />
        <mxCell id="1" parent="0" />
        <mxCell id="QCE3w9irfB1_1WQfkt-C-3" value="" style="edgeStyle=orthogonalEdgeStyle;rounded=0;orthogonalLoop=1;jettySize=auto;html=1;fontSize=12;startSize=8;endSize=8;exitX=1;exitY=0.5;exitDx=0;exitDy=0;entryX=0;entryY=0.5;entryDx=0;entryDy=0;" parent="1" source="tGTiCbUbnrh5Ysw6Gqjw-3" target="QCE3w9irfB1_1WQfkt-C-2" edge="1">
          <mxGeometry relative="1" as="geometry" />
        </mxCell>
        <mxCell id="tGTiCbUbnrh5Ysw6Gqjw-12" style="edgeStyle=orthogonalEdgeStyle;rounded=0;orthogonalLoop=1;jettySize=auto;html=1;fontSize=12;startSize=8;endSize=8;" edge="1" parent="1" source="QCE3w9irfB1_1WQfkt-C-1" target="tGTiCbUbnrh5Ysw6Gqjw-8">
          <mxGeometry relative="1" as="geometry" />
        </mxCell>
        <mxCell id="QCE3w9irfB1_1WQfkt-C-1" value="Development Team" style="rounded=1;whiteSpace=wrap;html=1;fillColor=#2A4BF0;fontColor=#ffffff;strokeColor=none;" parent="1" vertex="1">
          <mxGeometry x="140" y="60" width="120" height="60" as="geometry" />
        </mxCell>
        <mxCell id="tGTiCbUbnrh5Ysw6Gqjw-6" value="" style="edgeStyle=orthogonalEdgeStyle;rounded=0;orthogonalLoop=1;jettySize=auto;html=1;fontSize=12;startSize=8;endSize=8;" edge="1" parent="1" source="QCE3w9irfB1_1WQfkt-C-2" target="tGTiCbUbnrh5Ysw6Gqjw-5">
          <mxGeometry relative="1" as="geometry" />
        </mxCell>
        <mxCell id="QCE3w9irfB1_1WQfkt-C-2" value="PFF Cookbook" style="whiteSpace=wrap;html=1;rounded=1;fillColor=#77ADEE;strokeColor=none;" parent="1" vertex="1">
          <mxGeometry x="380" y="260" width="120" height="60" as="geometry" />
        </mxCell>
        <mxCell id="QCE3w9irfB1_1WQfkt-C-5" value="Material Library" style="whiteSpace=wrap;html=1;rounded=1;fillColor=#F1F7FD;strokeColor=none;" parent="1" vertex="1">
          <mxGeometry x="790" y="360" width="120" height="60" as="geometry" />
        </mxCell>
        <mxCell id="tGTiCbUbnrh5Ysw6Gqjw-13" style="edgeStyle=orthogonalEdgeStyle;rounded=0;orthogonalLoop=1;jettySize=auto;html=1;fontSize=12;startSize=8;endSize=8;entryX=0;entryY=0.5;entryDx=0;entryDy=0;exitX=1;exitY=0.5;exitDx=0;exitDy=0;" edge="1" parent="1" source="tGTiCbUbnrh5Ysw6Gqjw-2" target="tGTiCbUbnrh5Ysw6Gqjw-9">
          <mxGeometry relative="1" as="geometry">
            <mxPoint x="208" y="246" as="sourcePoint" />
            <Array as="points">
              <mxPoint x="320" y="180" />
              <mxPoint x="320" y="180" />
            </Array>
          </mxGeometry>
        </mxCell>
        <mxCell id="tGTiCbUbnrh5Ysw6Gqjw-2" value="CSS Team" style="rounded=1;whiteSpace=wrap;html=1;fillColor=#2A4BF0;fontColor=#ffffff;strokeColor=none;" vertex="1" parent="1">
          <mxGeometry x="140" y="150" width="120" height="60" as="geometry" />
        </mxCell>
        <mxCell id="tGTiCbUbnrh5Ysw6Gqjw-19" style="edgeStyle=orthogonalEdgeStyle;rounded=0;orthogonalLoop=1;jettySize=auto;html=1;exitX=1;exitY=0.5;exitDx=0;exitDy=0;fontSize=12;startSize=8;endSize=8;" edge="1" parent="1" source="tGTiCbUbnrh5Ysw6Gqjw-3">
          <mxGeometry relative="1" as="geometry">
            <mxPoint x="320" y="221" as="targetPoint" />
          </mxGeometry>
        </mxCell>
        <mxCell id="tGTiCbUbnrh5Ysw6Gqjw-3" value="Product Owners Team" style="rounded=1;whiteSpace=wrap;html=1;fillColor=#2A4BF0;fontColor=#ffffff;strokeColor=none;" vertex="1" parent="1">
          <mxGeometry x="140" y="340" width="120" height="60" as="geometry" />
        </mxCell>
        <mxCell id="tGTiCbUbnrh5Ysw6Gqjw-4" value="" style="edgeStyle=orthogonalEdgeStyle;rounded=0;orthogonalLoop=1;jettySize=auto;html=1;fontSize=12;startSize=8;endSize=8;exitX=1;exitY=0.5;exitDx=0;exitDy=0;entryX=0;entryY=0.5;entryDx=0;entryDy=0;" edge="1" parent="1" source="tGTiCbUbnrh5Ysw6Gqjw-2" target="QCE3w9irfB1_1WQfkt-C-2">
          <mxGeometry relative="1" as="geometry">
            <mxPoint x="270" y="210" as="sourcePoint" />
            <mxPoint x="390" y="210" as="targetPoint" />
          </mxGeometry>
        </mxCell>
        <mxCell id="tGTiCbUbnrh5Ysw6Gqjw-15" style="edgeStyle=none;curved=1;rounded=0;orthogonalLoop=1;jettySize=auto;html=1;fontSize=12;startSize=8;endSize=8;" edge="1" parent="1" source="tGTiCbUbnrh5Ysw6Gqjw-5" target="tGTiCbUbnrh5Ysw6Gqjw-10">
          <mxGeometry relative="1" as="geometry" />
        </mxCell>
        <mxCell id="tGTiCbUbnrh5Ysw6Gqjw-16" style="edgeStyle=orthogonalEdgeStyle;rounded=0;orthogonalLoop=1;jettySize=auto;html=1;entryX=0;entryY=0.5;entryDx=0;entryDy=0;fontSize=12;startSize=8;endSize=8;" edge="1" parent="1" source="tGTiCbUbnrh5Ysw6Gqjw-5" target="tGTiCbUbnrh5Ysw6Gqjw-8">
          <mxGeometry relative="1" as="geometry" />
        </mxCell>
        <mxCell id="tGTiCbUbnrh5Ysw6Gqjw-5" value="PFF Plays" style="whiteSpace=wrap;html=1;fillColor=#77ADEE;strokeColor=none;rounded=1;" vertex="1" parent="1">
          <mxGeometry x="560" y="260" width="120" height="60" as="geometry" />
        </mxCell>
        <mxCell id="tGTiCbUbnrh5Ysw6Gqjw-8" value="Platform Documentation" style="whiteSpace=wrap;html=1;rounded=1;fillColor=#F1F7FD;strokeColor=none;" vertex="1" parent="1">
          <mxGeometry x="790" y="60" width="120" height="60" as="geometry" />
        </mxCell>
        <mxCell id="tGTiCbUbnrh5Ysw6Gqjw-9" value="Internal Documentation" style="whiteSpace=wrap;html=1;rounded=1;fillColor=#F1F7FD;strokeColor=none;" vertex="1" parent="1">
          <mxGeometry x="790" y="150" width="120" height="60" as="geometry" />
        </mxCell>
        <mxCell id="tGTiCbUbnrh5Ysw6Gqjw-10" value="Clusters Library" style="whiteSpace=wrap;html=1;rounded=1;fillColor=#F1F7FD;strokeColor=none;" vertex="1" parent="1">
          <mxGeometry x="790" y="260" width="120" height="60" as="geometry" />
        </mxCell>
        <mxCell id="tGTiCbUbnrh5Ysw6Gqjw-11" value="Grasshopper Best Practices" style="whiteSpace=wrap;html=1;rounded=1;fillColor=#F1F7FD;strokeColor=none;" vertex="1" parent="1">
          <mxGeometry x="790" y="470" width="120" height="60" as="geometry" />
        </mxCell>
        <mxCell id="tGTiCbUbnrh5Ysw6Gqjw-17" style="edgeStyle=orthogonalEdgeStyle;rounded=0;orthogonalLoop=1;jettySize=auto;html=1;entryX=0;entryY=0.5;entryDx=0;entryDy=0;fontSize=12;startSize=8;endSize=8;" edge="1" parent="1" source="tGTiCbUbnrh5Ysw6Gqjw-5" target="QCE3w9irfB1_1WQfkt-C-5">
          <mxGeometry relative="1" as="geometry" />
        </mxCell>
        <mxCell id="tGTiCbUbnrh5Ysw6Gqjw-18" style="edgeStyle=orthogonalEdgeStyle;rounded=0;orthogonalLoop=1;jettySize=auto;html=1;fontSize=12;startSize=8;endSize=8;entryX=0;entryY=0.5;entryDx=0;entryDy=0;" edge="1" parent="1" source="tGTiCbUbnrh5Ysw6Gqjw-5" target="tGTiCbUbnrh5Ysw6Gqjw-11">
          <mxGeometry relative="1" as="geometry">
            <mxPoint x="691" y="500" as="targetPoint" />
          </mxGeometry>
        </mxCell>
      </root>
    </mxGraphModel>
  </diagram>
</mxfile>
